<?xml version="1.0" encoding="UTF-8" standalone="no"?>
<!-- Created with Inkscape (http://www.inkscape.org/) -->

<svg
   xmlns:dc="http://purl.org/dc/elements/1.1/"
   xmlns:cc="http://creativecommons.org/ns#"
   xmlns:rdf="http://www.w3.org/1999/02/22-rdf-syntax-ns#"
   xmlns:svg="http://www.w3.org/2000/svg"
   xmlns="http://www.w3.org/2000/svg"
   xmlns:sodipodi="http://sodipodi.sourceforge.net/DTD/sodipodi-0.dtd"
   xmlns:inkscape="http://www.inkscape.org/namespaces/inkscape"
   version="1.1"
   width="1000"
   height="729.65198"
   id="svg2"
   inkscape:version="0.91 r13725"
   sodipodi:docname="Toy Story (Print).svg">
  <sodipodi:namedview
     pagecolor="#ffffff"
     bordercolor="#666666"
     borderopacity="1"
     objecttolerance="10"
     gridtolerance="10"
     guidetolerance="10"
     inkscape:pageopacity="0"
     inkscape:pageshadow="2"
     inkscape:window-width="1366"
     inkscape:window-height="705"
     id="namedview4179"
     showgrid="false"
     inkscape:zoom="0.48666667"
     inkscape:cx="534.07625"
     inkscape:cy="332.23228"
     inkscape:window-x="-8"
     inkscape:window-y="-8"
     inkscape:window-maximized="1"
     inkscape:current-layer="svg2" />
  <defs
     id="defs4">
    <clipPath
       clipPathUnits="userSpaceOnUse"
       id="clipPath6102">
      <path
         d="M 0,792 612,792 612,0 0,0 0,792 Z"
         id="path6104"
         inkscape:connector-curvature="0" />
    </clipPath>
  </defs>
  <metadata
     id="metadata7">
    <rdf:RDF>
      <cc:Work
         rdf:about="">
        <dc:format>image/svg+xml</dc:format>
        <dc:type
           rdf:resource="http://purl.org/dc/dcmitype/StillImage" />
        <dc:title></dc:title>
      </cc:Work>
    </rdf:RDF>
  </metadata>
  <path
     d="m 522.96289,-3.4e-4 39.36719,96.599609 C 536.06284,84.421428 507.07606,78.001956 477.79883,77.978176 c -35.79594,0 -69.44106,9.417575 -98.59375,25.902344 L 368.17383,15.980129 0,55.277004 19.238281,218.18716 l 93.443359,-22.50195 31.15625,279.47851 176.875,-17.78515 -6.74023,-61.82813 c 36.45567,51.1632 96.23657,84.61402 163.70117,84.67188 l 0.18164,0 c 57.19923,0 110.91869,-24.02232 149.05469,-66.27149 l -3.07227,26.44336 180.0332,15.68164 L 819.95312,307.20278 1000,42.548488 798.55469,24.491848 751.64062,118.13443 724.29883,20.388332 522.96289,-3.4e-4 Z M 575.36328,42.657863 694.92188,54.716457 739.99023,215.38638 814.89258,62.28091 935.0918,72.847316 783.96094,296.12857 771.2207,418.67154 661.35547,408.31997 l 8.70508,-87.68359 c 2.64859,-12.91489 4.0675,-26.30638 4.0625,-40.00586 l 0.01,-1.63477 C 673.72839,226.02381 652.51983,177.96814 618.24023,142.68521 L 575.36328,42.657863 Z m -235.42969,3.560547 11.13086,90.95508 -100.86914,-3.82813 32.63867,289.21094 0.7129,0 L 171.33203,433.67349 141.68359,147.89614 46.248047,173.31216 35.121094,79.157863 339.93359,46.21841 Z m 135.22071,70.45117 c 91.96861,0.0761 166.58168,73.27209 166.49609,163.47656 -0.0618,90.23301 -74.81824,163.29957 -166.77734,163.21875 -92.10652,-0.0713 -166.73259,-73.26114 -166.66602,-163.49414 0.0363,-40.49334 15.12455,-77.52794 40.06836,-106.04882 l 39.92773,1.75 -4.08398,-32.53321 c 26.18819,-16.69903 57.45401,-26.39861 91.03516,-26.36914 z m -185.63477,54.57617 18.16602,0.79688 c -5.71588,9.05375 -10.73355,18.5899 -14.96875,28.53711 l -3.19727,-29.33399 z m 187.66992,59.67969 c -25.92962,-0.019 -46.97512,21.00448 -46.99414,46.95313 -0.0238,25.93438 20.96992,46.98038 46.9043,47.01367 25.80599,0.0143 46.8666,-21.00898 46.88086,-46.94336 0.0143,-25.94388 -20.99453,-46.99967 -46.79102,-47.02344 z m 0.59375,25.8457 c 11.71659,0.0143 21.20846,9.57612 21.18946,21.39258 0.0143,11.79743 -9.51049,21.35415 -21.2461,21.33985 -11.76891,-0.0143 -21.31726,-9.57026 -21.32226,-21.38672 0.019,-11.80694 9.60049,-21.36 21.3789,-21.34571 z"
     id="path6176"
     inkscape:connector-curvature="0" />
  <g
     id="g6138"
     transform="matrix(4.7551117,0,0,-4.7551117,425.94387,280.2507)" />
  <g
     id="g6096"
     transform="matrix(4.7551117,0,0,-4.7551117,-964.87874,2526.4706)">
    <g
       id="g6098" />
  </g>
  <path
     d="M 68.943359,380.60708 24.283203,729.652 l 0.01367,0 891.343747,-63.57031 -52.06835,-254.92187 -51.28321,-1.96875 -4.74804,43.94726 -0.70508,6.50977 -6.52344,-0.56446 -173.3418,-15.10546 -6.84961,-0.60157 0.78711,-6.83593 1.51563,-13.04688 c -38.20733,38.37848 -89.8427,60.02539 -144.75,60.02539 -62.52889,-0.0529 -118.53464,-28.34371 -156.0293,-72.74609 l 5.07422,52.00976 -187.72461,18.56836 -11.09375,-98.47656 -58.957033,-2.26758 z M 191.34961,493.31802 c 16.84736,0.01 36.53367,3.32837 49.71484,8.2832 l -13.71289,38.77735 c -8.33096,-11.38374 -19.51987,-18.00282 -30.84179,-18.00782 -6.68568,-0.005 -9.69032,2.96871 -9.69532,7.25782 -0.01,8.91108 33.68005,13.40778 47.69336,27.2832 5.67285,5.61103 8.6593,13.35706 8.6543,22.94336 -0.019,25.57299 -19.39167,40.41389 -59.75781,40.37109 -20.68474,-0.005 -39.20611,-2.49961 -56.88086,-9.28515 l 13.55273,-41.08008 c 7.3086,11.55967 20.16125,19.66744 31.1836,19.64844 5.16881,0 9.16773,-2.93854 9.17773,-6.9043 0.005,-14.68854 -48.71557,-10.76621 -48.66797,-48.06055 0.019,-27.24203 20.37894,-41.25506 59.58008,-41.22656 z m 259.16406,0.23828 c 35.61103,0.0238 63.52797,27.94424 63.51367,63.43164 -0.038,35.63956 -27.98323,63.52016 -63.61328,63.50586 -35.70613,-0.0428 -63.71378,-27.96616 -63.67578,-63.61523 0.0238,-35.48264 28.08352,-63.36507 63.77539,-63.32227 z m -191.76367,1.79688 110.4375,0.0898 -0.0488,54.4707 -27.69726,-0.0234 -0.0527,68.47657 -55.04492,-0.0469 0.0527,-68.47851 -27.68945,-0.0234 0.043,-54.46484 z m 284.33594,0.24609 81.24609,0.0684 c 31.37898,0.0285 45.19204,18.53012 45.17774,36.85156 -0.01,11.38374 -5.01626,20.95602 -14.20313,27.20899 13.34284,15.04518 21.48454,35.35798 24,58.94336 l -57.06641,-0.0469 c -2.33476,-32.68664 -9.31639,-45.54545 -24.15234,-45.56445 l -0.043,45.55078 -55.04492,-0.043 0.0859,-122.96875 z m 134.91601,0.11914 55.71094,0.0488 19.17383,27.91601 19.21484,-27.89257 55.72461,0.0527 -47.4414,69.27148 -0.043,53.65235 -55.0586,-0.0527 0.043,-53.63672 -47.32422,-69.35937 z m -76.54297,25.17773 -3.33203,0.0117 -0.01,23.75 1.49804,0 c 9.99524,0.01 14.85829,-3.60898 14.86329,-11.52148 0,-5.28293 -2.68192,-12.23024 -13.01954,-12.24024 z m -150.96875,19.86329 c -7.18973,-0.005 -12.36304,5.43104 -12.37304,12.86328 0.0143,7.42748 5.16438,12.88023 12.33984,12.89453 7.17547,0 12.35289,-5.44838 12.36719,-12.8711 -0.005,-7.437 -5.15377,-12.87671 -12.33399,-12.88671 z"
     id="path6108"
     inkscape:connector-curvature="0" />
</svg>
